<?xml version="1.0" encoding="utf-8"?>
<!-- Generator: Adobe Illustrator 25.4.0, SVG Export Plug-In . SVG Version: 6.00 Build 0)  -->
<svg version="1.1" id="Layer_1" xmlns="http://www.w3.org/2000/svg" xmlns:xlink="http://www.w3.org/1999/xlink" x="0px" y="0px"
	 viewBox="0 0 311 291" style="enable-background:new 0 0 311 291;" xml:space="preserve">
<style type="text/css">
	.st0{fill:#102942;}
	.st1{fill:#092D66;}
	.st2{fill:#2FC67A;}
</style>
<g>
	<g>
		<g>
			<g>
				<g>
					<path class="st1" d="M268.7,129.9c-0.1-1.6-0.4-3.1-0.6-4.6c-0.6-3.8-1.3-7.6-2.2-11.4c-0.1,0-0.2,0.1-0.4,0.1
						c-9.8,3.8-20,6.5-30.5,7.7c-4.4,0.6-8.8,0.8-13.3,0.8h-52c-22.1,0-43.3-6.8-62.7-17.2c-1.4-0.7-2.9-1.4-4.4-2
						c-0.7-0.3-1.3-0.5-2-0.7c-4.2-1.4-8.7-2.3-13.4-2.4c-1.6-0.1-3.1,0-4.6,0.2c-10.1,0.8-19.4,5.2-26.6,11.9
						c-0.7,0.6-1.3,1.3-2,1.9c-7.5,7.9-12.3,18.4-12.5,29.9c-0.2,12.4,4.6,23.6,12.5,31.8c0.7,0.7,1.3,1.3,2,1.9
						c7.6,7,17.6,11.4,28.6,11.7c0.6,0.1,1.1,0.1,1.6,0.1c5.1,0,9.9-0.9,14.5-2.4c0.7-0.2,1.3-0.5,2-0.7c1.6-0.6,3.2-1.3,4.7-2.1
						c24.1-13,50.2-21.5,77.6-21.5h21.6c4.7,0,9.3,0.3,13.9,0.7c0.7,0.1,1.3,0.1,2,0.2c4.3,0.5,8.5,1.2,12.7,2.1
						c10.6,2.2,20.9,5.6,31,9.8c0,0,0,0,0,0c1.2-5.1,2.1-10.3,2.6-15.7c0.1-0.4,0.1-0.9,0.1-1.3c0.5-4.5,0.7-9.1,0.7-13.8
						C269.5,139.9,269.2,134.9,268.7,129.9z M102.7,150.6c-0.5,1.2-1.2,2.3-2,3.3c-3.1,4.1-7.9,6.7-13.4,6.7c-2.5,0-4.9-0.6-7.1-1.6
						c-5.7-2.7-9.6-8.5-9.6-15.1c0-6.6,3.7-12.3,9.3-15c3.9-2,8.9-2.5,13.9-0.6c2.8,1.1,5.2,2.9,7,5.3c0.8,1,1.4,2.1,2,3.3
						c0.2,0.4,0.4,0.8,0.5,1.3C104.7,142.6,104.3,146.9,102.7,150.6z"/>
				</g>
			</g>
			<g>
				<g>
					<path class="st1" d="M144.2,17.7h-11.7c-0.1,0-0.2,0-0.3,0c-2.1,0.1-5.9,0.6-10.2,2c-6,1.9-13.2,5.5-19,12.2
						c-1.7,2-9.3,11.1-9.5,24.2c-0.2,8.5,2.5,16.5,7.2,22.9c0.6,0.9,1.3,1.7,2,2.5c7,8.1,17.3,13.3,28.8,13.3
						c6.5,0,12.6-1.6,17.9-4.5c10.7-5.7,21.9-10.4,33.4-13.6c0.9-0.3,1.8-0.5,2.7-0.7c7.1-1.9,14.4-3.1,21.8-3.6
						c2.7-0.2,5.4-0.3,8.1-0.3h18.3c4.3,0,8.5,0.3,12.7,0.7c0.9,0.1,1.8,0.2,2.6,0.3C226.1,39.6,187.7,17.7,144.2,17.7z M135.2,69.7
						c-4.7,0.9-9.1-0.6-12.2-3.3c-0.7-0.6-1.3-1.2-1.8-2c-2.7-3.5-3.8-8.3-2.2-13.3c1.3-4.1,4.7-7.4,8.8-8.8
						c10.7-3.5,20.7,5.6,18.7,16.3c-0.4,2.1-1.3,4.2-2.7,5.9c-0.5,0.7-1.1,1.4-1.8,2C140,68,137.7,69.2,135.2,69.7z"/>
				</g>
			</g>
			<g>
				<path class="st1" d="M249,218.1c-0.9,0.1-1.8,0.2-2.6,0.3c-4.2,0.5-8.4,0.7-12.7,0.7h-18.3c-2.7,0-5.4-0.1-8.1-0.3
					c-7.4-0.5-14.7-1.8-21.8-3.6c-0.9-0.2-1.8-0.5-2.7-0.7c-11.5-3.2-22.7-7.9-33.4-13.6c-5.3-2.9-11.4-4.5-17.9-4.5
					c-11.5,0-21.9,5.1-28.8,13.3c-0.7,0.8-1.4,1.6-2,2.5c-4.7,6.4-7.3,14.3-7.2,22.9c0.2,13,7.8,22.2,9.5,24.2
					c5.8,6.7,13,10.3,19,12.2c4.3,1.4,8.1,1.8,10.2,2c0.1,0,0.2,0,0.3,0h11.7C187.7,273.3,226.1,251.4,249,218.1z M141.9,224.6
					c0.7,0.6,1.3,1.3,1.8,2c1.3,1.7,2.2,3.7,2.7,5.9c2,10.7-7.9,19.8-18.7,16.3c-4.1-1.3-7.4-4.7-8.8-8.8c-1.6-5-0.5-9.8,2.2-13.3
					c0.5-0.7,1.2-1.4,1.8-2c3.1-2.8,7.5-4.2,12.2-3.3C137.7,221.8,140,223,141.9,224.6z"/>
			</g>
		</g>
	</g>
	<g>
		<g>
			<circle class="st2" cx="132.4" cy="55.7" r="10"/>
			<circle class="st2" cx="132.4" cy="235.3" r="10"/>
			<circle class="st2" cx="87.3" cy="143.8" r="11.9"/>
		</g>
	</g>
</g>
</svg>
